<?xml version="1.0" standalone="no"?>
<!DOCTYPE svg PUBLIC "-//W3C//DTD SVG 20010904//EN"
 "http://www.w3.org/TR/2001/REC-SVG-20010904/DTD/svg10.dtd">
<svg version="1.0" xmlns="http://www.w3.org/2000/svg"
 width="1080.000000pt" height="1080.000000pt" viewBox="0 0 1080.000000 1080.000000"
 preserveAspectRatio="xMidYMid meet">
<metadata>
Created by potrace 1.16, written by Peter Selinger 2001-2019
</metadata>
<g transform="translate(0.000000,1080.000000) scale(0.100000,-0.100000)"
fill="#000000" stroke="none">
<path d="M5225 10644 c-828 -48 -1455 -208 -2135 -545 -230 -113 -343 -178
-540 -306 -314 -206 -583 -424 -851 -692 -632 -632 -1084 -1392 -1333 -2243
-145 -494 -209 -946 -209 -1478 -1 -291 8 -436 44 -710 122 -940 519 -1862
1123 -2610 34 -41 63 -77 66 -80 3 -3 51 -58 108 -122 402 -457 934 -870 1504
-1167 729 -381 1591 -591 2418 -591 1251 1 2426 430 3405 1243 152 127 512
487 636 637 718 867 1121 1845 1221 2960 16 187 16 683 0 870 -104 1157 -548
2197 -1306 3055 -895 1013 -2126 1636 -3474 1760 -162 14 -562 26 -677 19z
m615 -245 c164 -12 388 -42 570 -75 643 -118 1413 -455 1965 -857 464 -340
926 -815 1225 -1262 309 -461 557 -1000 699 -1520 240 -875 222 -1931 -47
-2785 -191 -605 -498 -1189 -869 -1652 -337 -421 -748 -800 -1163 -1073 -579
-380 -1244 -652 -1860 -760 -672 -118 -1338 -109 -2005 26 -561 115 -1223 399
-1760 759 -382 255 -838 681 -1136 1060 -267 340 -470 680 -654 1096 -287 646
-419 1285 -418 2024 1 800 159 1490 503 2194 295 603 652 1079 1160 1544 439
402 958 723 1549 957 530 209 977 302 1641 339 98 5 447 -3 600 -15z"/>
<path d="M5093 10033 c4 -91 7 -258 7 -370 l0 -203 193 0 c105 0 202 3 215 6
20 6 22 13 22 65 l0 59 -155 0 -155 0 0 213 c0 118 -3 255 -6 305 l-7 92 -60
0 -60 0 6 -167z"/>
<path d="M5580 10130 c0 -69 0 -70 26 -70 24 0 26 -3 20 -32 -7 -36 -32 -68
-53 -68 -10 0 -12 -7 -8 -22 12 -38 23 -44 53 -26 44 27 70 91 77 196 l7 92
-61 0 -61 0 0 -70z"/>
<path d="M5826 9918 c-48 -332 -65 -462 -63 -464 3 -4 419 -64 437 -64 13 0
19 13 27 60 5 33 7 60 4 60 -28 2 -323 49 -326 52 -6 6 17 181 24 190 3 4 68
-2 144 -13 76 -12 144 -19 151 -16 11 4 30 105 22 114 -2 2 -67 12 -147 24
-79 12 -146 23 -148 25 -6 6 16 144 23 152 6 5 220 -20 297 -35 25 -5 27 -3
34 52 4 32 3 61 -2 65 -4 4 -93 20 -198 35 -104 15 -201 29 -215 32 l-25 4
-39 -273z"/>
<path d="M4305 10088 c-77 -17 -141 -31 -143 -32 -1 -2 14 -79 34 -172 19 -93
44 -212 54 -264 40 -194 59 -282 63 -286 4 -4 108 14 114 19 1 2 -11 70 -27
151 -17 81 -30 148 -30 151 0 2 18 6 39 10 59 10 86 -10 196 -140 80 -95 102
-115 119 -111 12 3 40 8 64 12 23 4 45 10 47 15 5 7 -40 66 -134 177 -25 30
-63 64 -84 77 l-38 22 35 22 c96 60 110 209 29 319 -53 71 -118 77 -338 30z
m220 -104 c45 -18 59 -111 22 -148 -28 -28 -207 -73 -207 -52 0 2 -7 41 -16
86 -8 45 -13 84 -11 86 7 8 130 32 164 33 17 1 39 -2 48 -5z"/>
<path d="M6476 9978 c-16 -57 -38 -130 -47 -163 -81 -269 -128 -438 -124 -445
6 -9 96 -33 102 -26 3 2 33 102 68 221 35 119 65 218 67 220 2 3 15 -53 28
-123 12 -70 35 -188 49 -261 l27 -135 57 -17 c31 -9 59 -14 61 -10 2 3 20 65
41 136 20 72 66 228 101 349 36 120 64 220 62 221 -3 2 -100 35 -104 35 -3 0
-12 -27 -80 -263 -32 -110 -61 -192 -65 -185 -3 7 -14 54 -22 103 -9 50 -23
128 -32 175 -9 47 -20 112 -26 145 -15 92 -15 93 -74 109 -29 9 -55 16 -57 16
-2 0 -16 -46 -32 -102z"/>
<path d="M3895 9978 c-27 -11 -51 -21 -52 -22 -2 -2 31 -97 73 -212 120 -329
121 -335 77 -384 -33 -37 -95 -50 -143 -30 -41 17 -60 57 -155 320 -43 118
-79 217 -81 219 -4 5 -103 -29 -108 -38 -7 -10 146 -430 184 -508 53 -108 138
-156 239 -134 110 23 190 84 211 159 13 50 13 57 -9 143 -25 99 -168 496 -180
503 -3 1 -28 -6 -56 -16z"/>
<path d="M7101 9832 c-11 -70 -23 -150 -66 -467 -15 -104 -28 -199 -31 -211
-5 -17 5 -25 57 -49 l63 -28 20 25 c12 13 122 142 246 286 124 145 226 267
228 272 2 4 -22 20 -53 34 l-57 26 -22 -28 c-34 -40 -223 -270 -281 -340 -27
-34 -51 -58 -53 -54 -1 5 11 100 28 213 47 304 51 332 48 335 -2 1 -29 13 -60
27 l-56 25 -11 -66z"/>
<path d="M3137 9659 c-79 -19 -155 -75 -189 -143 -67 -131 -4 -351 142 -496
104 -104 208 -127 325 -72 165 79 207 246 111 449 -68 143 -152 226 -260 258
-55 17 -73 17 -129 4z m155 -156 c65 -45 139 -174 153 -267 19 -127 -84 -216
-200 -172 -130 50 -239 298 -176 400 47 76 145 93 223 39z"/>
<path d="M7688 9568 c-186 -323 -338 -599 -335 -605 3 -5 27 -19 52 -33 41
-22 49 -23 57 -10 46 74 348 617 347 625 0 6 -22 22 -49 38 l-48 27 -24 -42z"/>
<path d="M7899 9377 c-35 -50 -130 -186 -211 -301 -82 -115 -148 -212 -148
-216 0 -4 21 -22 48 -39 55 -36 37 -50 151 113 41 58 76 106 77 106 2 0 19
-14 39 -31 34 -30 35 -34 34 -98 0 -36 -6 -115 -13 -176 -8 -60 -13 -110 -12
-110 0 -1 27 -18 59 -40 31 -21 59 -36 61 -34 2 2 11 67 21 144 13 106 15 152
8 187 l-11 48 27 -8 c58 -16 120 -6 159 25 47 38 99 114 108 159 17 89 -18
139 -170 247 -56 39 -115 81 -132 94 l-31 23 -64 -93z m180 -147 c71 -52 81
-64 81 -91 0 -56 -44 -108 -92 -109 -30 0 -181 97 -176 114 5 17 92 146 100
146 3 0 43 -27 87 -60z"/>
<path d="M2565 9293 c-16 -9 -81 -54 -143 -100 -81 -60 -111 -87 -105 -97 4
-7 104 -142 222 -299 l214 -285 48 35 c30 21 46 40 42 46 -4 7 -40 56 -80 109
-40 53 -73 101 -73 105 1 4 34 33 74 65 90 69 122 125 112 194 -11 87 -81 185
-158 225 -45 23 -112 24 -153 2z m141 -157 c27 -27 34 -42 34 -73 0 -40 -26
-73 -104 -131 l-29 -22 -59 79 c-33 44 -60 84 -61 88 0 4 26 27 59 50 76 55
112 57 160 9z"/>
<path d="M5015 9245 c-661 -72 -1246 -273 -1747 -601 -412 -269 -721 -554
-998 -919 -378 -497 -604 -1007 -730 -1643 -122 -617 -82 -1258 117 -1902 162
-525 445 -1014 835 -1447 364 -403 874 -762 1381 -970 292 -120 696 -225 1032
-267 123 -16 458 -36 504 -31 15 2 87 6 161 10 74 3 164 10 200 15 36 6 88 12
115 15 77 7 125 16 125 24 0 3 -18 5 -40 3 l-41 -4 3 73 c3 69 5 74 28 79 24
6 24 7 -7 14 -17 4 -34 13 -36 20 -4 10 15 12 81 10 48 -1 78 0 67 2 -49 12
-46 18 15 30 170 33 301 71 520 151 587 215 1091 557 1500 1019 98 110 280
343 280 358 0 4 9 16 20 28 11 12 20 28 20 35 0 7 4 13 8 13 5 0 14 11 20 25
9 19 9 25 -1 26 -6 0 -2 4 10 9 12 5 29 22 37 39 14 25 14 30 1 35 -8 3 -15
11 -15 17 0 8 5 8 16 -2 16 -13 19 -12 45 34 21 37 -10 79 -39 50 -8 -7 -17
-11 -22 -8 -4 3 -7 -9 -6 -26 1 -38 -21 -50 -33 -17 l-9 23 -10 -25 c-7 -16
-11 -19 -11 -9 -1 9 8 27 19 40 l19 24 1 -27 c0 -15 4 -29 9 -33 5 -3 9 14 8
39 -1 24 -5 39 -9 33 -4 -6 -9 -9 -12 -7 -2 3 2 14 10 25 14 19 15 19 20 -3 7
-24 19 -29 30 -11 3 6 17 9 30 6 13 -2 24 -1 24 4 0 4 2 14 6 22 4 11 -4 13
-45 9 -51 -5 -51 -4 -51 24 0 22 3 26 10 14 8 -12 10 -12 10 -1 0 11 3 11 17
0 14 -12 16 -12 11 2 -3 9 2 35 13 58 10 23 14 39 10 36 -5 -3 -12 1 -15 7 -3
7 -3 3 0 -9 3 -13 1 -23 -3 -23 -5 0 -14 -12 -20 -27 -11 -28 -11 -27 -7 7 5
53 99 322 108 313 5 -4 5 3 1 16 -5 15 -3 21 3 17 6 -4 8 2 5 14 -3 11 -1 26
4 33 5 6 20 47 33 89 13 42 28 75 32 72 4 -3 5 1 2 9 -4 12 22 107 46 162 5
11 30 88 56 170 59 185 64 263 22 336 -40 68 -90 98 -194 114 -45 7 -131 -20
-166 -52 -33 -29 -81 -111 -169 -284 -46 -90 -88 -167 -94 -171 -5 -4 -6 -8
-1 -8 5 0 4 -6 -1 -12 -6 -7 -40 -71 -77 -141 -78 -151 -81 -176 -31 -228 19
-20 31 -39 28 -43 -4 -3 -1 -6 5 -6 10 0 28 -40 23 -49 -2 -2 3 -7 9 -11 13
-8 17 -91 8 -155 -3 -22 -6 -44 -7 -48 -1 -5 -6 -5 -12 -1 -8 4 -9 -1 -4 -16
5 -15 4 -20 -4 -16 -7 4 -11 0 -11 -11 0 -27 -115 -133 -143 -133 -4 0 -6 4
-3 9 6 10 -24 25 -32 16 -3 -3 -1 -5 5 -5 6 0 13 -9 16 -19 3 -15 1 -18 -11
-14 -11 5 -13 3 -7 -8 7 -11 5 -11 -10 1 -17 14 -18 13 -12 -2 4 -13 2 -15
-10 -11 -11 5 -14 3 -8 -6 6 -10 3 -11 -15 -1 -19 10 -26 9 -43 -9 -12 -11
-18 -24 -13 -28 7 -7 20 8 29 32 3 6 8 6 13 2 5 -4 2 -12 -6 -17 -8 -6 -10
-10 -5 -10 6 0 3 -4 -5 -9 -18 -10 -80 -2 -80 10 0 5 9 9 19 9 10 0 22 7 25
16 9 23 1 28 -14 9 -7 -8 -19 -15 -26 -15 -8 0 -14 -6 -14 -12 0 -7 -11 -14
-24 -14 -17 -1 -3 13 55 52 51 35 84 52 96 48 14 -4 15 -4 4 4 -15 11 2 27 18
17 11 -6 61 15 61 26 0 5 -8 6 -17 3 -10 -3 -6 2 10 11 15 8 27 20 27 25 0 5
9 12 20 15 11 4 17 11 14 17 -5 7 -1 9 9 5 9 -3 20 -1 23 5 14 22 15 153 3
198 -34 121 -160 171 -299 119 -30 -11 -63 -21 -72 -22 -9 -1 -15 -4 -12 -8 2
-4 -3 -10 -12 -13 -8 -3 -12 -2 -9 4 3 6 -1 7 -9 4 -9 -3 -13 -10 -10 -15 3
-5 0 -10 -5 -10 -22 -3 -26 -5 -53 -22 -14 -10 -35 -19 -46 -20 -12 0 -19 -4
-17 -7 3 -6 -45 -33 -73 -42 -4 -1 -29 -17 -57 -36 -28 -18 -58 -31 -68 -28
-11 3 -17 0 -14 -7 5 -16 -59 -47 -81 -40 -14 4 -15 3 -2 -6 11 -8 4 -13 -32
-22 -26 -7 -45 -16 -42 -21 3 -4 -7 -10 -22 -14 -15 -4 -39 -13 -53 -20 -14
-8 -42 -14 -61 -14 -26 0 -31 -3 -20 -10 13 -8 12 -10 -5 -11 -11 -1 -24 -1
-28 0 -4 1 -18 -5 -30 -14 -24 -17 -41 -20 -32 -5 3 6 2 10 -4 10 -5 0 -11 -5
-13 -11 -6 -17 -114 -32 -138 -19 -14 7 -20 7 -20 0 0 -5 6 -10 13 -11 6 0
-19 -9 -58 -19 -53 -14 -73 -15 -84 -6 -11 8 -15 8 -18 -1 -3 -7 -11 -13 -19
-13 -9 0 -12 5 -8 11 4 7 -1 9 -12 7 -11 -2 -18 -10 -16 -17 2 -9 -3 -11 -13
-7 -9 3 -18 6 -21 6 -2 0 -1 8 3 18 5 14 3 13 -10 -3 -9 -11 -17 -17 -17 -12
0 4 -9 -2 -21 -14 -15 -15 -28 -19 -46 -14 -16 4 -22 2 -18 -5 3 -5 0 -10 -7
-10 -9 0 -9 -3 2 -10 19 -12 8 -13 -24 -1 -14 6 -26 6 -28 1 -3 -9 -63 -18
-138 -21 -58 -2 -70 0 -67 13 1 7 -8 14 -20 16 -34 5 -29 -25 7 -46 16 -9 30
-25 30 -34 0 -9 5 -20 10 -23 6 -3 10 -12 10 -18 0 -7 -7 -4 -14 6 -16 21 -26
22 -26 3 0 -8 -6 -16 -12 -19 -7 -2 -9 -8 -5 -13 4 -5 12 -2 18 6 8 13 10 13
19 0 8 -13 11 -13 26 1 13 14 14 21 4 38 -6 12 -9 27 -6 34 2 7 5 5 5 -4 1 -9
10 -26 21 -39 26 -30 14 -42 -45 -45 -45 -3 -68 13 -58 41 5 16 -88 44 -109
33 -23 -12 -58 -11 -58 1 0 6 -7 10 -15 10 -8 0 -15 5 -15 11 0 6 9 9 20 6 11
-3 18 -1 14 4 -7 11 7 11 25 0 7 -5 10 -14 6 -21 -5 -8 -1 -7 14 2 21 13 21
13 -4 26 -20 10 -33 10 -65 1 -22 -7 -37 -16 -33 -22 4 -6 1 -7 -7 -2 -10 6
-10 10 3 19 56 39 54 37 27 31 -34 -8 -60 -12 -92 -14 -17 0 -28 -7 -28 -15 0
-9 -15 -15 -44 -17 -57 -5 -51 14 9 31 25 7 42 16 39 21 -8 13 -64 11 -64 -2
0 -7 -16 -9 -49 -4 -31 4 -51 3 -56 -4 -3 -6 -22 -11 -41 -11 -24 0 -34 -5
-34 -15 0 -12 -16 -15 -80 -15 -47 0 -80 4 -80 10 0 6 18 10 40 10 29 0 40 4
40 15 0 11 -11 15 -40 15 -22 0 -40 -4 -40 -10 0 -6 -34 -10 -81 -10 -47 0
-78 4 -74 9 3 5 0 13 -6 17 -16 9 -82 -63 -75 -81 7 -19 -30 -20 -49 -1 -15
14 -69 10 -59 -5 3 -5 -2 -6 -10 -3 -29 11 -16 -17 13 -29 23 -10 28 -16 21
-27 -6 -8 -10 -10 -10 -4 0 7 -12 19 -26 29 -22 14 -32 15 -75 4 -27 -7 -49
-16 -49 -20 0 -3 -19 -10 -42 -14 l-43 -8 35 -8 c30 -7 29 -7 -10 -3 -25 3
-57 5 -71 6 -26 1 -33 18 -14 35 4 4 5 2 1 -4 -10 -19 -1 -16 52 13 58 31 115
91 108 111 -3 8 -6 17 -6 19 0 3 -5 2 -10 -1 -6 -3 -13 1 -16 9 -3 9 -15 16
-27 16 -20 0 -20 0 -1 -18 10 -9 20 -25 22 -35 3 -15 -2 -18 -27 -15 -35 3
-40 -12 -10 -28 20 -10 20 -11 -3 -26 -33 -21 -58 -29 -58 -18 0 6 7 10 16 10
8 0 22 7 31 15 14 14 13 15 -13 9 -16 -4 -37 -11 -46 -15 -21 -11 -54 -12 -44
-1 4 4 11 7 14 8 4 0 18 5 31 11 24 10 24 10 3 15 -12 4 -20 2 -16 -3 3 -5 0
-9 -5 -9 -6 0 -11 4 -11 9 0 5 -18 8 -40 6 -22 -2 -40 1 -40 6 0 5 18 9 40 9
22 0 40 5 40 10 0 6 18 10 40 10 22 0 40 3 40 8 0 4 -36 7 -80 7 -57 0 -80 -4
-80 -12 0 -16 -77 -18 -82 -2 -2 5 -18 11 -36 11 -18 1 -35 5 -38 10 -3 4 -26
8 -50 8 l-46 0 29 -23 c21 -18 42 -24 82 -26 64 -2 66 -3 53 -28 -7 -12 -7
-25 0 -37 8 -14 7 -17 -3 -14 -8 3 -14 15 -13 27 1 23 -12 28 -75 29 -37 1
-61 17 -62 41 0 11 -3 9 -9 -6 -8 -20 -12 -22 -34 -11 -14 6 -23 15 -20 19 3
5 -2 9 -11 9 -9 0 -14 -4 -11 -9 4 -5 -7 -6 -26 0 -18 4 -51 11 -73 15 -34 5
-37 8 -20 15 14 6 7 8 -25 6 -25 -2 -60 3 -79 11 -27 11 -35 11 -42 1 -5 -9
-11 -10 -21 -2 -7 6 -40 15 -73 19 l-60 8 50 7 c30 5 51 4 53 -1 2 -6 11 -10
20 -10 14 1 14 3 -3 12 -19 12 -18 13 10 20 32 8 -20 2 -79 -9 -23 -5 -27 -3
-21 8 7 12 6 12 -7 1 -18 -14 -112 -7 -103 8 3 4 -1 8 -8 7 -39 -1 -58 4 -51
15 4 6 3 8 -4 4 -11 -6 -20 -3 -100 30 -30 12 -39 20 -30 26 9 6 7 8 -7 7 -32
-3 -86 19 -182 73 -40 23 -69 46 -66 51 4 6 0 8 -10 4 -9 -3 -26 2 -39 11 -13
10 -56 33 -95 52 -40 18 -73 38 -73 42 0 5 -8 8 -17 6 -10 -2 -17 2 -16 9 2 7
-4 10 -12 7 -11 -4 -13 -2 -10 9 6 14 -22 33 -33 22 -3 -3 0 -5 6 -5 7 0 12
-4 12 -9 0 -5 -18 -2 -39 7 -22 9 -37 21 -34 25 3 5 -1 7 -8 6 -8 -1 -36 1
-63 6 -69 11 -144 -8 -187 -47 -19 -18 -36 -32 -39 -31 -3 1 -6 -6 -7 -15 -1
-9 -7 -39 -13 -67 -6 -27 -9 -62 -6 -77 6 -32 -20 -47 -29 -17 -4 11 -9 18
-12 16 -2 -3 2 -18 11 -34 8 -15 15 -22 16 -15 0 6 7 12 15 12 13 0 13 -3 3
-19 -9 -15 -9 -25 -1 -43 7 -13 14 -32 16 -43 4 -18 5 -17 6 3 0 12 -4 31 -11
42 -17 26 -2 38 17 14 24 -31 38 -57 27 -50 -6 3 -14 1 -18 -6 -4 -7 -4 -10 1
-6 4 4 17 3 28 -3 15 -9 18 -8 12 1 -4 7 6 2 23 -10 17 -13 28 -28 25 -33 -4
-6 0 -8 10 -4 11 4 14 2 10 -9 -7 -20 -36 -18 -77 6 -20 10 -38 15 -41 10 -6
-9 49 -40 72 -40 7 0 13 -6 13 -12 0 -10 3 -9 9 1 5 7 14 10 20 7 16 -10 14
-23 -6 -30 -24 -10 -127 60 -119 81 4 11 2 14 -9 9 -16 -6 -53 39 -42 51 4 3
11 -5 16 -18 10 -24 10 -24 10 -1 1 21 -2 24 -31 26 -13 1 -33 38 -48 89 -6
18 -5 25 2 21 6 -4 6 1 -1 14 -21 40 16 155 70 216 50 57 53 88 18 157 -16 33
-27 65 -23 71 5 7 2 8 -6 3 -10 -6 -12 -4 -7 9 4 9 3 15 -2 12 -11 -7 -35 40
-26 53 3 6 2 10 -4 9 -6 -2 -66 104 -134 235 -67 131 -136 256 -154 277 -103
122 -308 102 -390 -38 -42 -71 -36 -143 26 -332 28 -85 81 -247 117 -360 36
-113 70 -212 75 -222 4 -9 9 -37 10 -62 2 -24 6 -43 10 -40 4 2 5 14 3 27 -4
20 -4 20 4 2 6 -12 6 -30 0 -44 -7 -19 -6 -22 7 -17 13 5 15 1 10 -15 -6 -17
-4 -20 6 -13 12 7 12 5 1 -9 -11 -12 -11 -23 -3 -44 10 -27 11 -27 5 7 -4 26
-3 31 5 20 6 -8 11 -25 11 -37 0 -13 5 -23 10 -23 16 0 12 -50 -5 -56 -8 -4
-15 -12 -15 -19 0 -16 35 -26 47 -14 6 6 8 -3 5 -22 -4 -27 -7 -30 -16 -17 -8
10 -23 13 -49 10 -23 -2 -44 1 -54 9 -14 12 -15 11 -9 -11 l7 -25 -15 25 c-10
18 -11 27 -3 32 9 5 9 10 -1 20 -9 9 -12 9 -12 -2 0 -8 -13 8 -29 35 -30 54
-49 111 -32 101 5 -4 12 -2 16 3 3 6 -5 8 -19 5 -21 -3 -23 -1 -18 18 3 13 1
19 -5 15 -10 -7 -56 91 -56 119 0 7 -4 11 -8 9 -9 -6 -19 32 -15 64 2 14 1 17
-1 6 -13 -55 -135 349 -187 620 -43 223 -59 398 -59 670 -1 258 7 349 49 610
164 1014 774 1932 1656 2491 447 283 940 461 1494 540 156 22 623 30 794 14
74 -7 151 -14 170 -15 19 -1 43 -5 53 -9 9 -5 29 -5 44 -1 17 4 29 2 35 -7 7
-10 9 -9 5 4 -3 9 -1 19 6 22 9 3 8 5 -1 5 -7 1 -10 5 -7 11 3 6 -1 7 -10 3
-12 -4 -13 -8 -5 -13 7 -4 -2 -10 -20 -14 -49 -9 -58 -7 -30 9 22 13 23 14 5
15 -19 0 -20 5 -15 86 3 47 2 90 -1 95 -6 11 -95 22 -179 23 -30 1 -58 5 -62
11 -12 16 -523 16 -673 0z"/>
<path d="M5115 8950 c-49 -5 -106 -12 -125 -16 -19 -3 -60 -8 -90 -9 -52 -2
-170 -22 -270 -45 -25 -6 -56 -13 -70 -15 -64 -10 -160 -37 -155 -45 3 -4 -3
-6 -13 -3 -10 2 -38 -3 -62 -12 -25 -9 -63 -21 -85 -26 -21 -6 -44 -14 -50
-19 -6 -5 -33 -14 -60 -21 -28 -7 -59 -18 -70 -24 -11 -7 -48 -22 -82 -35 -35
-12 -63 -27 -63 -33 0 -6 -3 -7 -6 -4 -4 4 -19 0 -33 -7 -14 -8 -80 -41 -146
-74 -99 -49 -223 -119 -305 -172 -56 -36 -222 -155 -254 -182 -21 -18 -46 -37
-55 -42 -9 -5 -47 -36 -86 -69 -108 -93 -101 -85 -87 -99 7 -7 12 -19 12 -28
-1 -11 -4 -10 -12 5 -6 11 -13 22 -15 24 -4 6 -63 -50 -63 -61 0 -4 8 -5 18
-2 14 5 14 4 2 -4 -8 -6 -18 -8 -23 -5 -13 8 -78 -59 -73 -74 3 -7 0 -15 -6
-19 -7 -4 -8 -3 -4 4 14 23 -7 11 -38 -20 -79 -83 -116 -130 -110 -140 4 -6 3
-8 -3 -5 -6 4 -29 -16 -52 -43 -40 -47 -51 -68 -31 -55 6 3 7 -1 3 -10 -4 -12
-8 -13 -13 -5 -5 9 -13 4 -26 -16 -10 -16 -28 -40 -40 -54 -12 -14 -47 -63
-78 -110 -31 -47 -62 -93 -69 -103 -50 -71 -174 -304 -242 -452 -14 -33 -31
-68 -36 -77 -5 -10 -9 -22 -9 -28 0 -5 -11 -33 -24 -62 -43 -96 -129 -375
-150 -489 -1 -7 -7 -32 -13 -54 -22 -83 -47 -242 -47 -297 0 -31 -4 -51 -8
-45 -5 7 -8 2 -8 -13 -1 -90 -12 -338 -15 -352 -3 -16 8 -18 109 -18 l112 0
12 163 c14 181 42 386 67 492 48 204 61 251 101 374 24 73 44 139 44 146 0 7
4 15 9 17 5 2 13 16 17 32 5 22 4 27 -6 21 -9 -5 -11 -4 -6 4 4 6 11 9 16 6 5
-3 12 5 16 17 12 41 117 273 130 288 7 8 28 44 47 80 40 78 95 175 110 194 50
71 140 203 144 214 3 7 17 26 32 41 14 15 49 56 76 90 28 34 58 71 67 83 10
11 15 25 11 31 -3 6 -1 7 5 3 7 -4 28 12 49 36 102 116 324 319 438 403 22 16
42 32 45 36 11 15 245 172 345 231 33 19 96 54 140 77 45 24 85 52 90 64 6 11
17 22 25 24 10 3 9 -1 -4 -11 -38 -31 -8 -25 70 12 43 21 108 49 144 62 36 13
70 26 75 30 6 4 55 22 110 39 55 18 109 37 120 42 11 5 79 22 150 39 72 17
146 34 165 40 63 17 74 19 125 25 28 3 102 12 165 21 155 20 151 20 430 23
139 2 230 7 210 11 -30 6 -31 8 -9 9 15 0 42 -2 60 -6 32 -6 33 -7 9 -13 -20
-5 130 -24 280 -35 14 -1 32 -4 40 -7 35 -12 132 -27 145 -21 8 3 15 0 15 -6
0 -6 9 -11 19 -11 24 0 163 -34 209 -50 18 -7 35 -10 38 -7 3 3 -48 21 -113
41 -65 21 -128 41 -141 47 -13 5 -42 7 -65 4 -28 -3 -34 -2 -17 3 19 6 4 12
-75 30 -188 41 -343 64 -540 79 -123 10 -427 11 -520 3z"/>
<path d="M8490 8946 c-83 -18 -137 -51 -222 -136 -102 -102 -148 -192 -148
-293 0 -82 28 -145 89 -200 76 -69 145 -88 243 -68 139 29 325 212 358 352 50
208 -117 388 -320 345z m112 -132 c9 -3 33 -23 52 -44 32 -35 36 -46 36 -93 0
-64 -32 -124 -105 -198 -63 -64 -119 -97 -176 -105 -86 -10 -159 56 -159 145
1 68 31 125 113 206 93 93 147 113 239 89z"/>
<path d="M1845 8669 c-71 -78 -139 -153 -149 -167 l-20 -25 36 -31 c20 -17
143 -130 273 -250 l237 -219 23 24 c82 86 285 313 285 319 0 5 -19 25 -42 44
l-43 36 -116 -122 -117 -122 -71 63 c-39 35 -71 66 -71 71 0 4 45 56 101 116
l100 109 -45 43 -46 43 -62 -68 c-35 -37 -82 -88 -104 -112 l-41 -45 -61 55
-60 54 41 47 c23 26 73 82 112 124 l69 76 -44 39 c-25 21 -47 38 -50 39 -3 0
-63 -64 -135 -141z"/>
<path d="M8763 8294 l-293 -226 32 -42 c18 -22 33 -43 35 -45 2 -4 148 105
306 229 42 34 77 59 77 57 0 -3 -34 -76 -76 -163 -42 -88 -94 -196 -114 -241
l-39 -82 35 -45 c19 -26 38 -46 42 -46 4 0 115 84 247 186 132 103 261 202
288 222 26 20 47 39 47 42 0 18 -63 89 -73 83 -7 -4 -92 -69 -189 -145 -98
-76 -180 -138 -183 -138 -6 0 21 60 129 283 53 110 96 202 96 205 0 4 -17 26
-38 50 l-37 43 -292 -227z"/>
<path d="M4219 8149 c-6 -238 52 -332 213 -346 56 -6 58 -5 69 23 17 46 15
134 -6 173 -24 47 -46 65 -142 110 -46 22 -94 52 -108 67 l-25 27 -1 -54z"/>
<path d="M6400 8157 c-93 -32 -156 -72 -187 -119 -24 -35 -27 -51 -27 -113 0
-96 10 -108 84 -103 123 9 170 59 195 208 9 52 23 105 31 117 8 12 14 25 14
28 0 11 -48 4 -110 -18z"/>
<path d="M1368 8057 l-35 -52 290 -205 c159 -113 294 -208 301 -212 7 -4 55
54 126 154 63 88 119 166 123 174 5 9 -7 24 -40 48 -26 19 -51 32 -55 30 -3
-2 -43 -56 -88 -119 -45 -63 -85 -115 -89 -115 -5 0 -51 30 -102 67 -52 36
-162 115 -246 174 l-151 107 -34 -51z"/>
<path d="M9155 7784 c-170 -97 -314 -180 -319 -184 -8 -8 38 -100 50 -100 3 0
87 47 187 104 100 57 192 109 205 115 15 8 -24 -58 -119 -200 -78 -117 -144
-221 -146 -230 -5 -16 42 -109 54 -109 3 0 29 13 57 29 84 47 498 281 543 307
l43 25 -25 49 c-14 28 -27 50 -29 50 -3 0 -276 -154 -385 -217 -24 -14 -40
-19 -36 -12 5 8 73 111 153 231 l144 216 -28 51 c-16 28 -31 51 -34 51 -3 -1
-144 -80 -315 -176z"/>
<path d="M1213 7755 c-41 -17 -77 -69 -158 -223 -48 -89 -61 -123 -52 -130 7
-5 147 -80 312 -167 165 -87 306 -162 313 -168 8 -6 16 -6 21 -1 5 5 45 80 90
168 89 173 96 207 62 274 -25 49 -66 86 -121 111 -56 26 -103 26 -156 2 l-42
-19 -6 28 c-7 39 -63 99 -111 121 -48 22 -108 24 -152 4z m146 -141 c19 -16
31 -35 31 -50 0 -23 -74 -184 -85 -184 -4 0 -135 70 -144 77 -5 3 54 117 81
156 26 36 75 37 117 1z m269 -113 c47 -24 64 -58 52 -101 -7 -26 -73 -155 -85
-169 -3 -2 -82 36 -173 85 -2 1 9 26 24 55 74 147 105 169 182 130z"/>
<path d="M6161 7665 c-114 -55 -247 -151 -302 -219 -52 -64 -89 -155 -89 -215
1 -86 53 -233 96 -273 16 -14 27 -15 68 -7 119 22 233 106 282 206 27 54 27
55 19 191 -12 183 -9 273 9 316 19 46 11 46 -83 1z"/>
<path d="M4500 7558 c0 -150 33 -316 80 -407 27 -53 94 -121 141 -144 97 -45
263 -61 304 -27 43 35 45 230 3 321 -46 100 -103 143 -266 201 -115 40 -155
61 -207 109 -23 21 -45 39 -49 39 -3 0 -6 -42 -6 -92z"/>
<path d="M3185 7319 c21 -136 78 -279 141 -355 19 -24 56 -56 82 -71 43 -26
56 -28 147 -28 163 0 188 24 166 159 -14 80 -44 139 -96 184 -50 44 -88 58
-222 78 -85 12 -113 22 -217 72 -4 3 -5 -15 -1 -39z"/>
<path d="M7420 7344 c-88 -19 -201 -76 -233 -117 -14 -18 -30 -51 -36 -72 -14
-51 -14 -143 0 -183 9 -27 18 -33 64 -43 109 -24 245 13 298 83 15 19 38 75
52 128 36 128 44 148 78 187 l29 33 -93 -1 c-52 0 -123 -7 -159 -15z"/>
<path d="M9450 7215 c-228 -91 -334 -137 -332 -147 5 -22 155 -402 161 -410 3
-3 31 3 63 15 l56 22 -58 145 c-33 80 -59 152 -60 161 0 11 26 26 81 47 44 18
86 32 92 32 7 0 36 -63 66 -140 l53 -139 51 20 c28 11 54 22 58 25 4 2 -18 67
-48 145 -30 78 -53 142 -51 143 28 18 141 57 148 50 4 -5 33 -72 63 -149 61
-154 58 -151 134 -118 l41 18 -81 208 c-45 114 -86 207 -92 206 -5 0 -161 -60
-345 -134z"/>
<path d="M880 7148 c-44 -126 -65 -96 180 -243 120 -72 217 -131 216 -133 -3
-3 -440 46 -477 54 -26 5 -28 2 -57 -85 l-30 -89 77 -25 c42 -14 195 -66 340
-116 145 -50 270 -91 277 -91 14 0 48 91 37 101 -6 6 -335 121 -483 169 -24 8
-24 8 5 9 17 0 62 -4 100 -9 245 -32 388 -50 406 -50 13 0 25 11 33 33 32 78
46 63 -181 197 -291 172 -292 173 -263 165 31 -9 317 -105 427 -145 l82 -29
16 50 c10 28 13 55 9 59 -7 7 -678 240 -690 240 -1 0 -12 -28 -24 -62z"/>
<path d="M9985 6731 c-11 -4 -167 -41 -347 -82 -363 -82 -340 -71 -315 -150
l12 -36 250 58 c138 32 256 57 264 56 7 -1 -100 -53 -238 -116 -138 -63 -251
-118 -251 -122 0 -4 5 -31 11 -60 l11 -51 287 5 c157 3 279 3 271 1 -8 -3
-129 -31 -268 -63 -139 -32 -255 -60 -257 -63 -5 -5 15 -91 24 -100 6 -7 21
-4 391 81 124 29 249 57 278 64 45 10 52 15 48 32 -2 11 -9 45 -15 75 -7 30
-15 61 -20 68 -6 10 -65 13 -256 12 -137 0 -245 4 -239 8 5 5 104 52 219 106
116 54 214 102 218 106 7 6 -6 79 -29 163 -6 18 -17 20 -49 8z"/>
<path d="M623 6235 c-22 -121 -40 -221 -39 -222 0 0 102 -19 226 -42 124 -22
288 -51 364 -65 77 -14 141 -25 142 -23 1 1 18 97 38 212 21 116 39 217 42
226 3 13 -5 18 -38 23 -24 4 -52 9 -64 12 -19 5 -22 -4 -49 -160 -33 -188 -24
-176 -127 -156 -109 22 -101 17 -95 58 14 90 38 228 43 243 3 13 -6 19 -40 28
-85 21 -80 27 -107 -130 -13 -77 -26 -144 -29 -149 -4 -7 -148 14 -157 23 -3
4 44 278 53 308 3 12 -8 18 -59 25 l-63 10 -41 -221z"/>
<path d="M9975 5943 c-93 -7 -249 -19 -345 -26 l-175 -12 1 -70 c0 -38 6 -144
14 -234 l13 -163 61 7 c33 3 61 7 62 8 0 1 -5 76 -12 167 -7 90 -11 166 -9
169 3 2 47 6 99 9 l94 5 5 -29 c3 -16 9 -76 12 -134 9 -149 6 -144 72 -137 30
3 57 8 59 10 3 2 0 68 -6 147 -6 78 -9 144 -6 147 6 6 148 24 154 19 2 -3 10
-76 17 -163 7 -87 14 -159 14 -160 3 -7 98 -2 110 6 11 7 11 42 -3 219 -9 115
-16 215 -16 221 0 6 -10 10 -22 10 -13 -1 -99 -8 -193 -16z"/>
<path d="M675 5795 c-53 -19 -111 -82 -125 -136 -7 -24 -10 -71 -8 -104 9
-126 69 -187 193 -193 127 -7 179 35 240 193 41 107 64 135 109 135 58 -1 96
-50 96 -123 0 -57 -38 -101 -101 -118 l-44 -12 3 -60 4 -59 50 6 c66 9 140 47
168 86 74 104 63 271 -22 344 -49 42 -91 56 -172 56 -75 0 -138 -29 -172 -79
-13 -20 -40 -78 -60 -129 -50 -128 -94 -160 -145 -106 -18 20 -24 37 -24 73 0
61 24 97 74 111 37 10 39 12 36 48 -2 20 -4 47 -4 60 -1 27 -34 29 -96 7z"/>
<path d="M9480 5301 l0 -58 235 -13 c129 -7 233 -16 229 -19 -3 -3 -112 -51
-242 -107 l-237 -101 -7 -59 c-4 -31 -6 -59 -4 -62 5 -5 171 -17 421 -32 105
-6 220 -14 258 -17 l67 -6 0 56 c0 31 -3 58 -8 60 -4 3 -112 11 -240 18 -128
7 -229 16 -225 20 4 4 117 53 250 110 l241 104 4 57 3 57 -35 5 c-19 3 -116
10 -215 16 -99 6 -245 15 -325 20 -80 5 -151 10 -157 10 -9 0 -13 -18 -13 -59z"/>
<path d="M1165 5223 c-22 -2 -110 -10 -195 -18 -85 -8 -215 -20 -287 -27
l-133 -12 0 -52 c0 -29 3 -55 8 -57 7 -5 63 0 340 26 72 7 132 10 132 7 0 -3
-102 -68 -226 -145 l-225 -140 4 -52 c2 -29 7 -56 11 -60 6 -6 113 1 391 27
276 25 340 32 343 35 2 1 0 26 -4 55 l-7 53 -101 -7 c-56 -4 -139 -11 -186
-16 -47 -5 -110 -11 -140 -14 l-55 -5 50 31 c373 231 417 261 411 282 -3 12
-6 38 -6 59 l0 37 -42 -2 c-24 -1 -61 -3 -83 -5z"/>
<path d="M10035 4608 c-16 -82 -19 -89 -39 -84 -11 2 -140 28 -286 56 -146 28
-273 53 -282 56 -13 4 -19 -6 -28 -52 -7 -31 -8 -60 -3 -64 4 -4 49 -15 98
-24 190 -35 487 -94 491 -99 5 -4 -9 -98 -22 -153 -5 -18 2 -22 51 -33 32 -7
61 -9 65 -4 13 15 93 454 84 463 -5 5 -32 13 -61 18 l-51 9 -17 -89z"/>
<path d="M1277 4656 c-26 -7 -49 -15 -52 -17 -2 -3 5 -38 15 -79 10 -41 28
-114 38 -162 18 -80 18 -88 3 -92 -67 -19 -172 -39 -177 -34 -3 3 -19 66 -36
140 -17 73 -34 137 -38 141 -7 8 -98 -10 -112 -22 -4 -3 8 -69 27 -146 18 -77
30 -143 27 -147 -6 -5 -132 -38 -147 -38 -6 0 -21 58 -51 190 -14 63 -29 118
-33 123 -4 4 -20 3 -37 -2 -16 -5 -41 -12 -56 -15 l-26 -6 14 -62 c32 -139 87
-373 89 -376 1 -1 69 14 151 33 82 20 178 42 214 50 116 25 351 83 355 86 7 8
-101 449 -110 448 -5 0 -31 -6 -58 -13z"/>
<path d="M9085 3095 c-49 -50 -85 -73 -205 -132 -80 -39 -163 -87 -186 -106
-97 -84 -158 -295 -123 -430 9 -37 7 -49 -16 -101 -37 -84 -43 -136 -16 -160
30 -27 54 -14 46 25 -5 20 0 54 15 100 l23 69 61 0 c164 0 315 90 385 229 55
109 93 301 90 463 -2 110 -5 112 -74 43z"/>
<path d="M1530 2970 c0 -254 46 -424 147 -548 61 -75 268 -156 353 -137 27 6
29 3 49 -50 12 -31 21 -78 21 -105 0 -43 3 -50 20 -50 11 0 27 11 35 24 15 23
14 30 -15 113 -17 48 -31 95 -31 103 1 8 4 50 7 93 12 148 -37 291 -123 367
-28 24 -109 71 -193 112 -122 60 -155 81 -207 134 l-63 62 0 -118z"/>
<path d="M4134 1300 c-93 -29 -176 -123 -209 -236 -24 -81 -20 -198 9 -259 49
-105 171 -175 305 -175 145 0 250 92 293 254 22 86 23 146 2 216 -21 70 -106
157 -180 183 -61 21 -177 30 -220 17z m210 -143 c50 -39 68 -79 68 -151 -1
-121 -65 -231 -150 -257 -37 -11 -50 -10 -97 5 -118 37 -157 166 -95 312 41
94 88 127 176 122 49 -3 69 -10 98 -31z"/>
<path d="M6450 1263 c-74 -19 -136 -35 -137 -37 -1 -1 34 -141 77 -311 44
-171 80 -313 80 -317 0 -9 291 67 331 87 85 43 139 135 139 238 0 55 -30 179
-56 229 -25 48 -86 110 -129 129 -61 28 -148 23 -305 -18z m227 -84 c15 -6 38
-20 50 -31 44 -42 90 -206 78 -278 -12 -69 -38 -85 -216 -136 -14 -4 -25 30
-68 202 -29 114 -48 210 -44 215 8 7 126 37 155 38 9 1 29 -4 45 -10z"/>
<path d="M4780 1173 c0 -10 -5 -87 -10 -170 -29 -448 -29 -457 -17 -465 7 -4
33 -8 59 -8 l47 0 6 43 c3 23 9 113 14 200 5 87 11 160 14 163 2 3 56 -92 118
-210 l114 -215 67 -1 66 0 6 73 c3 39 11 162 16 272 6 110 13 224 17 253 l6
52 -65 0 -65 0 -7 -157 c-4 -87 -9 -184 -13 -215 l-5 -56 -36 66 c-118 225
-195 368 -200 373 -4 4 -35 10 -69 14 -57 6 -63 5 -63 -12z"/>
<path d="M5742 1165 c-107 -33 -180 -122 -203 -249 -31 -167 61 -345 203 -392
75 -25 214 -16 290 19 32 14 74 38 94 54 l37 27 -7 104 c-4 56 -9 116 -13 133
-5 28 -8 30 -47 25 -22 -3 -85 -8 -138 -12 l-98 -6 0 -41 c0 -66 7 -71 90 -63
l71 7 -3 -48 c-3 -47 -4 -48 -57 -75 -121 -62 -238 -16 -276 107 -30 101 -12
220 41 267 29 26 89 48 129 48 47 0 113 -34 127 -66 13 -28 20 -28 110 -3 l39
10 -27 48 c-46 86 -118 121 -243 120 -42 0 -95 -6 -119 -14z"/>
</g>
</svg>
